<svg width="55" height="39" viewBox="0 0 55 39" fill="none" xmlns="http://www.w3.org/2000/svg">
<path fill-rule="evenodd" clip-rule="evenodd" d="M17.551 6.91405V2.69636H10.3401V12.9345C10.3401 13.0705 9.18367 13.9549 9.08163 14.0569C8.84354 14.261 8.63945 14.397 8.43537 14.6011C8.19728 14.8052 7.9932 14.9413 7.7551 15.1453C7.34694 15.5535 6.90476 15.8596 6.46258 16.2338L3.87755 18.4106C3.77551 18.5127 3.67347 18.6147 3.57143 18.6828L0.170068 21.5399C0.0680272 21.6419 0.0680272 21.6079 0 21.71H10.3401V38.6827H18.4354C18.5374 38.6827 18.5374 38.6147 18.6054 38.5127C18.6395 38.4106 18.6735 38.3766 18.7075 38.2746C18.8095 38.1385 18.8775 38.0025 18.9796 37.8664L20.4422 35.2474C20.5782 35.3154 21.3265 36.778 21.4286 36.9481L22.415 38.6827H25.2041C25.2041 38.4106 21.9048 32.9004 21.9048 32.6964C21.9048 32.6283 22.619 31.4038 22.7211 31.2338C22.9932 30.6895 23.2653 30.2134 23.5714 29.7032L25.034 27.1181C25.102 26.9821 25.1701 26.846 25.2381 26.744H22.449L20.9524 29.329C20.8503 29.5331 20.5442 29.9753 20.4762 30.2134L20.3401 30.0093C19.7619 28.9208 19.0476 27.7984 18.4694 26.71H15.7143C15.7143 26.812 15.7823 26.914 15.8503 27.0161L17.415 29.8052C17.517 30.0093 17.6531 30.2134 17.7551 30.4174L18.4694 31.6759C18.6395 31.9821 18.8435 32.2882 18.9796 32.5943C19.0816 32.7984 18.7075 33.2746 18.5714 33.5467L16.9728 36.3358C16.9048 36.4378 16.8707 36.6079 16.7687 36.6079H12.3469V19.6351H5.64626C5.81633 19.397 8.12925 17.5603 8.57143 17.1521C8.74149 17.0161 8.87755 16.914 9.0136 16.778L11.9728 14.329C12.0408 14.261 12.3469 14.0229 12.3469 13.9208V4.73718H15.4762V11.3358L21.2245 6.5399C21.3265 6.47187 21.4286 6.36983 21.5306 6.3018C21.6326 6.19976 21.7347 6.09772 21.8367 6.02969C22.619 5.38344 23.6394 4.46507 24.4218 3.85282C24.5238 3.7848 24.5918 3.71677 24.7279 3.61473C24.8299 3.51269 24.932 3.41065 25.034 3.34262C25.136 3.24058 25.2381 3.17255 25.3741 3.07051C25.4762 2.96847 25.5782 2.90044 25.6803 2.76439C25.9524 2.90044 26.5986 3.51269 26.8707 3.75078L29.2517 5.75758C29.3197 5.82561 29.3537 5.82561 29.3877 5.85963L29.8639 6.23378C30.7143 6.98207 32.2449 8.20656 32.9932 8.88684C33.0612 8.95486 33.0612 8.95486 33.1292 9.02289C33.2653 9.09092 33.3333 9.15894 33.4354 9.26099L34.6258 10.2474C34.7279 10.3494 34.8299 10.4174 34.932 10.5195C35 10.5535 35.2041 10.7576 35.2721 10.7576H52.1769C52.3129 10.7576 52.2789 10.6896 52.2449 10.5875L52.0748 9.77119C52.0068 9.46507 51.9047 8.92085 51.8027 8.68275H36.6667C35.6122 8.68275 36.0884 8.71677 35.1701 8.00248L34.8639 7.76439C34.7619 7.69636 34.6939 7.62833 34.5918 7.52629L34.1497 7.15214C33.0952 6.23378 32.0068 5.34942 30.9184 4.46507L29.2857 3.10452C29.2177 3.0365 29.2177 3.0365 29.1497 2.96847L25.8843 0.247383C25.8163 0.179355 25.8163 0.145342 25.7483 0.111328C25.5442 0.145342 25.3741 0.383437 25.2381 0.519491L24.2177 1.33582C24.1156 1.43786 24.0476 1.47187 23.9456 1.57391L20.7823 4.22697C20.034 4.83922 19.3537 5.48548 18.6054 6.06371L17.8231 6.70997C17.7551 6.77799 17.619 6.88003 17.551 6.91405V6.91405ZM30.3741 28.9549C30.4762 29.0229 30.5442 29.431 30.5442 29.5671L31.5646 34.397H29.2177L30.3741 28.9549V28.9549ZM39.3537 35.9276C39.3537 36.3358 39.0136 36.6079 38.5714 36.6419C38.0952 36.6759 37.483 36.6419 37.0068 36.6419L37.483 38.7168C39.0136 38.7168 40.034 38.7168 41.1905 37.7984C41.3945 37.6283 41.4966 37.5263 41.6326 37.3222C41.7347 37.1861 41.8027 37.0841 41.8707 36.9481C42.0408 36.6759 42.1769 36.3698 42.2789 36.0977L42.8571 34.193C43.2993 32.9344 43.6735 31.71 44.0816 30.4515C44.1497 30.2474 45.2721 26.88 45.2721 26.71H42.449L40.9864 31.9481C40.9184 32.1181 40.7823 32.5603 40.7823 32.7304L40.136 31.2338C39.932 30.7236 39.7279 30.2474 39.5238 29.7372L38.6394 27.4583C38.5714 27.3222 38.5374 27.1861 38.5034 27.0841C38.4354 26.9481 38.3673 26.812 38.3673 26.71H35.6803C35.7483 26.914 36.0204 27.5943 36.1224 27.8664C36.2925 28.2406 36.4286 28.6147 36.5986 29.0229L39.3537 35.9276V35.9276ZM46.1905 29.329V36.0297C46.1905 36.9481 46.7007 37.7304 47.415 38.1725C48.7415 39.0229 51.4966 39.0229 52.9252 38.1725C53.2313 37.9685 53.5714 37.6623 53.7755 37.3222C54.2857 36.4038 54.1496 35.5195 54.1496 34.363H51.6326C51.6326 35.4515 51.8707 36.812 50.4762 36.812C49.6258 36.812 48.8435 36.778 48.8435 35.5875V29.7712C48.8435 28.8188 49.3537 28.5127 50.3401 28.5127C51.8027 28.5127 51.6326 29.6351 51.6326 30.5535H54.1496C54.1496 29.193 54.2857 28.1045 52.9252 27.2202C52.3469 26.812 51.7007 26.71 51.0204 26.6079C50.6803 26.5739 49.7279 26.5399 49.3877 26.6079C48.3673 26.744 47.415 26.9821 46.7687 27.7644C46.4626 28.1045 46.1905 28.7508 46.1905 29.329V29.329ZM25.8503 38.6827H28.2993L28.7415 36.71C28.7415 36.6079 28.7415 36.5059 28.8775 36.5059H32.0748L32.2789 37.5603C32.3469 37.9344 32.449 38.3086 32.517 38.6827H35.2381L34.8639 37.0161C34.8299 36.846 34.7619 36.5739 34.7279 36.4378H35.5102L35.034 34.397H34.2857L32.7211 27.6964C32.6871 27.5263 32.6531 27.3562 32.619 27.1862C32.585 27.0841 32.517 26.846 32.517 26.71H28.6735C28.5374 26.71 28.5374 26.88 28.5034 27.0161C28.2653 28.2746 27.8231 29.8052 27.551 31.1317C27.449 31.6079 27.3129 32.1181 27.2109 32.6283L26.0204 37.9004C25.9864 38.0025 25.9524 38.1385 25.9184 38.2746C25.9184 38.4106 25.8503 38.5467 25.8503 38.6827V38.6827Z" fill="#EF7D00"/>
</svg>
