<svg width="40" height="13" viewBox="0 0 40 13" fill="none" xmlns="http://www.w3.org/2000/svg">
<path fill-rule="evenodd" clip-rule="evenodd" d="M20.6462 0.866435V12.7372H23.3673V10.5943H26.3605V12.7372H28.9796C29.0476 12.7372 29.0816 12.7032 29.0816 12.6351V0.866435C29.0816 0.764394 29.0476 0.764394 28.9796 0.764394H26.3605V8.55351H23.3673V0.866435C23.3673 0.764394 23.3333 0.764394 23.2313 0.764394H20.7483C20.6803 0.764394 20.6462 0.764394 20.6462 0.866435V0.866435ZM10.6122 12.7032H13.2653V9.06371C13.2653 8.99568 13.5714 8.62154 13.6394 8.55351C13.7415 8.41745 14.0136 8.07732 14.0476 7.97528C14.1837 8.07732 14.1496 8.11133 14.2177 8.24739L15.034 9.74399C15.2381 10.1521 16.5986 12.5331 16.6326 12.7032H19.4218C19.3877 12.5671 19.0816 12.0229 18.9796 11.8528C18.3673 10.8324 17.7211 9.60793 17.1428 8.58752L15.7143 6.10453C16.3265 5.18616 16.9388 4.33582 17.551 3.45147L18.4354 2.09092C18.6054 1.85283 18.7415 1.68276 18.9115 1.44467C19.0476 1.20657 19.2177 0.968476 19.3537 0.764394H16.6326C16.5986 0.866435 16.3605 1.20657 16.2585 1.37664C16.0884 1.58072 15.9524 1.75079 15.8163 1.95487C15.5442 2.39705 15.2721 2.7712 14.966 3.17936L13.2653 5.62834V0.764394H10.6122V12.7032ZM34.8979 2.97528C34.8979 3.14535 35 3.48548 35.034 3.65555C35.102 3.89365 35.17 4.16575 35.2041 4.36984C35.3061 4.84603 35.4081 5.32222 35.5442 5.79841L36.1564 8.58752H33.6054C34.0136 6.88684 34.3877 5.01609 34.7959 3.31541C34.8299 3.24739 34.8299 3.24739 34.8299 3.14535L34.8979 2.97528V2.97528ZM30.3401 12.7372H32.7891C32.9592 12.0229 33.0952 11.3086 33.2653 10.6283H36.5646C36.5646 10.8324 36.9728 12.6692 37.0068 12.7372H39.7279L39.2177 10.6283H40L39.5578 8.58752H38.7755L38.0952 5.62834C38.0272 5.32222 37.9592 4.98208 37.8571 4.64195L37.0408 0.934462C37.0068 0.832421 37.0408 0.764394 36.9047 0.764394H33.1632C33.0272 0.764394 33.0272 0.934462 32.9932 1.0365L32.3809 3.68956C32.1769 4.70997 31.9388 5.66235 31.7007 6.68276L30.5102 11.9549C30.4422 12.1249 30.3401 12.5331 30.3401 12.7372V12.7372ZM4.93196 10.9004C4.35373 10.9004 3.70747 10.8664 3.46937 10.2202C3.43536 10.0501 3.40135 9.88004 3.40135 9.67596V3.82562C3.40135 3.34943 3.50339 3.07732 3.7755 2.87324C4.25169 2.46507 5.40815 2.49909 5.85033 2.90725C6.12243 3.14535 6.19046 3.5195 6.19046 3.99569V9.57392C6.19046 10.3902 5.81631 10.9004 4.93196 10.9004V10.9004ZM0.714272 3.92766C0.714272 4.91405 0.646245 9.84603 0.7823 10.4923C1.15645 12.295 2.89114 12.8732 4.76189 12.8732C5.85033 12.8732 6.93876 12.6351 7.58502 12.227C8.2993 11.7508 8.84352 11.0365 8.84352 10.0501V3.41745C8.84352 2.94126 8.67345 2.49909 8.46937 2.15895C7.85713 1.10453 6.46257 0.662354 5.17005 0.662354C3.87754 0.662354 2.72108 0.696367 1.73468 1.44467C0.918355 2.05691 0.714272 2.87324 0.714272 3.92766V3.92766Z" fill="white"/>
</svg>
